<svg xmlns="http://www.w3.org/2000/svg" data-name="Layer 1" viewBox="0 0 168 168" id="orphan"><circle cx="2" cy="149.911" r="2" fill="#2d4356"></circle><path fill="#2d4356" d="M11 147.911H8a2 2 0 0 0 0 4h3a2 2 0 0 0 0-4zm149 0h-3a2 2 0 0 0 0 4h3a2 2 0 0 0 0-4z"></path><circle cx="166" cy="149.911" r="2" fill="#2d4356"></circle><path fill="#0bceb2" d="M118.154 155.911h-8.308a2.006 2.006 0 0 0 0 4h8.308a2.006 2.006 0 0 0 0-4zm-60 0h-8.308a2.006 2.006 0 0 0 0 4h8.308a2.006 2.006 0 0 0 0-4zm45.846 0H64a2 2 0 0 0 0 4h15.94v2H72a2 2 0 0 0 0 4h25a2 2 0 1 0 0-4h-8.94v-2H104a2 2 0 1 0 0-4z"></path><path fill="#2d4356" d="M27.594 36.754a2.132 2.132 0 0 1 .225.967 20.643 20.643 0 0 0 1.233 10.487 41.823 41.823 0 0 0 5.708 8.954c.646.846 11.162 14.579 11.162 14.579a5.095 5.095 0 0 0 7.79.545l1.845 2.548a5.128 5.128 0 0 0 7.051 1.178 5.474 5.474 0 0 0 1.026-.96 5.123 5.123 0 0 0 6.681.728 4.978 4.978 0 0 0 1.19-7.04l-.88-1.179a5.496 5.496 0 0 0 1.224-.626 4.98 4.98 0 0 0 1.186-7.044L61.948 45.12l4.589 1.561.217.06a5.87 5.87 0 0 0 4.482-.761 5.531 5.531 0 0 0 2.418-3.55c1.024-4.968-4.623-6.738-6.75-7.404a15.555 15.555 0 0 1-6.867-4.315c-2.383-2.327-6.807-6.643-14.165-6.643h-.144a1.005 1.005 0 0 1-.368-.132 2 2 0 1 0-3.458 2.01 4.576 4.576 0 0 0 3.823 2.121h.148c5.283 0 8.639 2.84 11.37 5.507a19.553 19.553 0 0 0 8.466 5.268c4.322 1.354 4.116 2.354 4.028 2.78a1.554 1.554 0 0 1-.678 1.003 1.84 1.84 0 0 1-1.355.229l-8.667-2.949a2.652 2.652 0 0 0-3.247.725c-.323.438-.946 1.636.276 3.322l13.75 18.311a.961.961 0 0 1 .172.732 1.006 1.006 0 0 1-.426.66 1.482 1.482 0 0 1-1.785-.048 1.976 1.976 0 0 0-.395-.398L54.354 45.731a2 2 0 0 0-3.207 2.39l17.135 22.987a.965.965 0 0 1 .174.73 1.008 1.008 0 0 1-.43.662 1.122 1.122 0 0 1-1.537-.262L49.336 49.229a2 2 0 1 0-3.206 2.39l14.687 19.7.002.004a.625.625 0 0 1 .1.51 1.446 1.446 0 0 1-.597.898 1.11 1.11 0 0 1-1.525-.242l-14.603-19.7a2 2 0 1 0-3.18 2.422l9.925 13.033a.964.964 0 0 1 .173.73 1.017 1.017 0 0 1-.424.663 1.121 1.121 0 0 1-1.558-.284S38.558 55.545 37.935 54.73a38.227 38.227 0 0 1-5.203-8.086 16.74 16.74 0 0 1-.939-8.475 5.84 5.84 0 0 0-1.071-3.916l-7.265-7.594a1.999 1.999 0 0 0-2.886 2.767zm66.472 26.91a4.975 4.975 0 0 0 2.08 3.271 5.5 5.5 0 0 0 1.225.626l-.895 1.202a4.928 4.928 0 0 0-.877 3.743 4.978 4.978 0 0 0 2.08 3.273 5.123 5.123 0 0 0 6.685-.727 5.482 5.482 0 0 0 1.026.96 5.128 5.128 0 0 0 7.05-1.178l1.844-2.548a5.049 5.049 0 0 0 3.666 1.547 5.04 5.04 0 0 0 4.093-2.052s10.548-13.773 11.194-14.619a41.792 41.792 0 0 0 5.706-8.951 20.626 20.626 0 0 0 1.234-10.486 2.136 2.136 0 0 1 .226-.971l7.023-7.327a1.999 1.999 0 1 0-2.886-2.767l-7.129 7.436-.136.158a5.845 5.845 0 0 0-1.071 3.92 16.723 16.723 0 0 1-.941 8.474 38.193 38.193 0 0 1-5.201 8.083l-11.227 14.663a1.105 1.105 0 0 1-1.522.246 1.021 1.021 0 0 1-.428-.665.945.945 0 0 1 .144-.692l9.955-13.072a2 2 0 1 0-3.181-2.423l-14.603 19.7a1.106 1.106 0 0 1-1.523.244 1.445 1.445 0 0 1-.599-.9.625.625 0 0 1 .1-.51l.001-.002 14.688-19.7a2 2 0 1 0-3.207-2.39l-17.169 23.03a1.121 1.121 0 0 1-1.523.24 1.009 1.009 0 0 1-.427-.662.952.952 0 0 1 .157-.708l17.151-23.009a2 2 0 1 0-3.206-2.39l-13.029 17.48a1.982 1.982 0 0 0-.394.396 1.48 1.48 0 0 1-1.786.048 1.009 1.009 0 0 1-.426-.66.943.943 0 0 1 .152-.702l13.79-18.368a2.53 2.53 0 0 0-2.99-4.02l-8.667 2.949a1.839 1.839 0 0 1-1.355-.229 1.555 1.555 0 0 1-.679-1.002c-.087-.427-.293-1.427 4.027-2.78a19.55 19.55 0 0 0 8.466-5.27c2.733-2.665 6.088-5.507 11.37-5.507l.148.001a4.577 4.577 0 0 0 3.825-2.121 2.024 2.024 0 0 0-.708-2.757 1.974 1.974 0 0 0-2.718.7.776.776 0 0 1-.401.18l-.145-.002c-7.355 0-11.78 4.318-14.164 6.644a15.555 15.555 0 0 1-6.866 4.316c-2.127.665-7.774 2.435-6.75 7.403a5.531 5.531 0 0 0 2.418 3.55 5.86 5.86 0 0 0 4.482.762l4.81-1.621-11.113 14.8a4.939 4.939 0 0 0-.874 3.743z"></path><path fill="#0bceb2" d="M31.082 101.093a2.679 2.679 0 0 0 1.93.83h.004a2.652 2.652 0 0 0 1.902-.809l8.85-8.995a8.801 8.801 0 0 0-.002-11.774 7.585 7.585 0 0 0-5.544-2.416h-.001a7.554 7.554 0 0 0-5.209 2.081 7.567 7.567 0 0 0-10.759.338 8.807 8.807 0 0 0 .03 11.799zM25.16 83.094a3.574 3.574 0 0 1 5.282-.002l1.116 1.183a2.06 2.06 0 0 0 2.907 0l1.103-1.168.013-.014a3.573 3.573 0 0 1 5.28-.002 4.883 4.883 0 0 1 .028 6.252l-7.879 8.009-7.848-7.98a4.886 4.886 0 0 1-.002-6.278zm115.036-5.165h-.001a7.554 7.554 0 0 0-5.209 2.081 7.567 7.567 0 0 0-10.759.338 8.807 8.807 0 0 0 .03 11.799l8.8 8.946a2.679 2.679 0 0 0 1.928.83h.005a2.652 2.652 0 0 0 1.902-.809l8.85-8.995a8.801 8.801 0 0 0-.002-11.774 7.585 7.585 0 0 0-5.544-2.416zm2.667 11.414-7.879 8.009-7.848-7.98a4.886 4.886 0 0 1-.002-6.278 3.574 3.574 0 0 1 5.282-.002l1.116 1.183a2.06 2.06 0 0 0 2.907 0l1.103-1.168.013-.014a3.573 3.573 0 0 1 5.279-.002 4.883 4.883 0 0 1 .03 6.252z"></path><path fill="#2d4356" d="M150.721 147.911H98.263l-1.428-10.27a2.953 2.953 0 0 1 .556-1.408 24.863 24.863 0 0 0 5.842-10.893 50.681 50.681 0 0 0 .677-12.5c-.037-1.27-.075-2.537-.08-3.8l-.566-18.019a5.599 5.599 0 0 0-1.627-3.945 5.473 5.473 0 0 0-3.918-1.637h-.026a5.465 5.465 0 0 0-1.401.197l-.014-4.146a5.59 5.59 0 0 0-1.657-3.976 5.483 5.483 0 0 0-3.89-1.608h-.022a5.772 5.772 0 0 0-1.878.335 5.537 5.537 0 0 0-11.07.344l.04 2.296a5.902 5.902 0 0 0-1.92-.332h-.032a5.6 5.6 0 0 0-5.526 5.66l.472 23.113-3.874-5.483-.143-.179a6.355 6.355 0 0 0-4.504-2.192 6.159 6.159 0 0 0-4.5 1.74c-4.054 3.904-.083 9.243 1.413 11.255a18.913 18.913 0 0 1 3.614 9.01c.665 3.86 1.904 11.047 8.858 15.945a1.157 1.157 0 0 1 .386.74l-.763 9.753H17.28a2.017 2.017 0 1 0 0 4H150.72a2.017 2.017 0 1 0 0-4zm-65.958-11.903a2 2 0 0 0-2.706-.823c-3.786 2.022-7.699-.756-7.874-.883-.04-.029-.083-.047-.124-.073-.033-.025-.064-.056-.098-.08-5.165-3.638-6.435-8.802-7.22-13.356a22.746 22.746 0 0 0-4.346-10.718c-2.966-3.987-2.597-5.264-1.848-5.986a2.137 2.137 0 0 1 1.576-.624 2.335 2.335 0 0 1 1.605.786l6.184 8.753c1.262 1.788 2.645 1.58 3.183 1.41.539-.173 1.79-.81 1.782-3.044l-.555-27.207a1.587 1.587 0 0 1 1.548-1.615 2.015 2.015 0 0 1 1.469.63 1.422 1.422 0 0 1 .458.951 1.974 1.974 0 0 0 .102.597l.44 25.953a2 2 0 0 0 1.998 1.965h.035a2 2 0 0 0 1.966-2.034l-.577-34.066a1.585 1.585 0 0 1 1.546-1.615h.009a1.504 1.504 0 0 1 1.065.444 1.63 1.63 0 0 1 .478 1.177l.579 34.093a2.038 2.038 0 0 0 2.033 1.966 2 2 0 0 0 1.965-2.034l-.5-29.468a2.054 2.054 0 0 1 1.791-1.201 1.636 1.636 0 0 1 1.076.445 1.614 1.614 0 0 1 .476 1.152l.417 29.124a2 2 0 1 0 3.997-.108l-.525-19.465a1.587 1.587 0 0 1 1.546-1.616h.007a1.506 1.506 0 0 1 1.075.453 1.66 1.66 0 0 1 .47 1.196l.517 17.805.05.387c.008 1.222.044 2.45.08 3.677a46.958 46.958 0 0 1-.586 11.528 20.958 20.958 0 0 1-4.954 9.126 6.781 6.781 0 0 0-1.535 4.247l1.39 10.054H75.294l.66-8.447a11.733 11.733 0 0 0 3.172.456 10.108 10.108 0 0 0 4.814-1.207 2 2 0 0 0 .823-2.705zM7.695 51.278a3 3 0 1 0-3-3 3.003 3.003 0 0 0 3 3zm0-4.5a1.5 1.5 0 1 1-1.5 1.5 1.501 1.501 0 0 1 1.5-1.5zM164 49.277a2 2 0 1 0 2 2 2.002 2.002 0 0 0-2-2zm0 3a1 1 0 1 1 1-1 1.001 1.001 0 0 1-1 1zM90.163 2.721a2 2 0 1 0 2 2 2.002 2.002 0 0 0-2-2zm0 3a1 1 0 1 1 1-1 1.001 1.001 0 0 1-1 1zM153 33.662a2 2 0 1 0 2 2 2.002 2.002 0 0 0-2-2zm0 3a1 1 0 1 1 1-1 1.001 1.001 0 0 1-1 1zM9.695 12.911a2 2 0 1 0-2 2 2.002 2.002 0 0 0 2-2zm-3 0a1 1 0 1 1 1 1 1.001 1.001 0 0 1-1-1z"></path><path fill="#0bceb2" d="m37.656 7.209 1.487-1.955-.939-.532-.954 2.19h-.032l-.969-2.175-.956.548 1.472 1.909v.031l-2.301-.297v1.064l2.316-.297v.031l-1.487 1.908.892.564 1.018-2.206h.03l.939 2.19.986-.563-1.502-1.878V7.71l2.362.282V6.928l-2.362.313v-.032zM73.736 23.065l-.856 1.099.514.324.586-1.271h.017l.541 1.262.568-.324-.865-1.082v-.018l1.36.162v-.612l-1.36.18v-.018l.856-1.126-.541-.306-.549 1.261h-.018l-.559-1.253-.55.316.847 1.099v.018l-1.325-.171v.612l1.334-.17v.018zM164.724 5.296V4.252l-2.317.307v-.031l1.459-1.918-.921-.521-.936 2.148h-.032l-.95-2.133-.938.537 1.444 1.872v.031l-2.257-.292v1.044l2.272-.291v.03l-1.459 1.872.875.553.999-2.164h.029l.921 2.148.968-.552-1.474-1.842v-.03l2.317.276zM116.748 19.497l1.258-1.654-.795-.45-.807 1.852h-.027l-.82-1.839-.809.463 1.245 1.615v.027l-1.946-.252v.9l1.959-.251v.026l-1.258 1.615.755.477.861-1.867h.026l.795 1.853.834-.476-1.271-1.589v-.026l1.998.238v-.9l-1.998.265v-.027z"></path></svg>