<svg xmlns="http://www.w3.org/2000/svg" viewBox="0 0 64 64" id="adopted-child"><g data-name="Layer 2"><path fill="#d87d6a" d="M48.335,42.186c-2.51,4.21-21.87,2.6-22.56,1.73L35.8,42.7a2.138,2.138,0,0,0,1.48-.61s6.03,1.36,9.5.07A2.15,2.15,0,0,1,48.335,42.186Z"></path><path fill="#f7ad99" d="M48.285,46.066c-4.99,1.95-17,5.92-27.9-.37v-7.76c.7-1.22,2.4-2.45,6.5-1.28a54.37,54.37,0,0,0,9.14,1.87,2.083,2.083,0,0,1,1.86,2.08A2.083,2.083,0,0,1,35.8,42.7l-10.02,1.22c.69.87,20.05,2.48,22.56-1.73a2.039,2.039,0,0,1,1.06.99,2.08,2.08,0,0,1,.22.93A2.114,2.114,0,0,1,48.285,46.066Z"></path><polygon fill="#c2956e" points="20.385 45.696 20.385 47.156 14.385 47.156 14.385 35.156 20.385 35.156 20.385 37.936 20.385 45.696"></polygon><path fill="#2e1b14" d="M42.605,29.406a14.052,14.052,0,0,0,4.28-2.24l.4.4a6.008,6.008,0,0,1-.13,8.62,6.171,6.171,0,0,1-8.53-.31l-3.96-3.95a4.625,4.625,0,0,1-1.15-1.91c-.29-.93-.69-2.17-.88-2.67l.31-.02A10.061,10.061,0,0,0,42.605,29.406Z"></path><path fill="#af7548" d="M42.335,22.616l4.55,4.55a14.052,14.052,0,0,1-4.28,2.24,9.658,9.658,0,0,0-.68-7.04A1.381,1.381,0,0,1,42.335,22.616Z"></path><path fill="#c2956e" d="M41.925,22.366a9.658,9.658,0,0,1,.68,7.04,10.061,10.061,0,0,1-9.66-2.08l-.31.02a.355.355,0,0,1-.04-.09l.12-.49a4.3,4.3,0,0,0,5.28-5.28l.49-.12C39.045,21.606,41,21.946,41.925,22.366Z"></path><path fill="#d87d6a" d="M38.515,17.286a1.461,1.461,0,0,1,0,2.05l-.94.94a5.653,5.653,0,0,0-1.16-1.64,5.4,5.4,0,0,0-.69-.59l.04-.06.7-.7a1.437,1.437,0,0,1,2.05,0Z"></path><path fill="#f7ad99" d="M37.995,21.486a4.3,4.3,0,0,1-5.28,5.28,5.777,5.777,0,0,1-2.7-1.45l-.71.71a1.437,1.437,0,0,1-2.05,0,1.461,1.461,0,0,1,0-2.05l1.16-1.16a4.718,4.718,0,0,1,.49-4.06,3.376,3.376,0,0,0,.6.16.915.915,0,0,0,.16.01.988.988,0,0,0,.98-.83.922.922,0,0,0-.15-.71,5.135,5.135,0,0,1,5.23.66,5.4,5.4,0,0,1,.69.59,5.653,5.653,0,0,1,1.16,1.64A5.431,5.431,0,0,1,37.995,21.486Z"></path><path d="M30.5,17.386a.922.922,0,0,1,.15.71.988.988,0,0,1-.98.83.915.915,0,0,1-.16-.01,3.376,3.376,0,0,1-.6-.16,4.649,4.649,0,0,1,.49-.59A4.406,4.406,0,0,1,30.5,17.386Z"></path><path d="M29.835,16.946a1,1,0,0,1,.66.44,4.406,4.406,0,0,0-1.1.78,4.649,4.649,0,0,0-.49.59,3.358,3.358,0,0,1-2.25-2.71,1,1,0,1,1,1.98-.29A1.481,1.481,0,0,0,29.835,16.946Z"></path></g><g data-name="Layer 6"><path fill="#331e03" d="M35.8,43.2h-7.95a1,1,0,0,1,0-2H35.8a1.137,1.137,0,0,0,.783-.327,1.121,1.121,0,0,0,.307-.763,1.081,1.081,0,0,0-.963-1.085,55.379,55.379,0,0,1-9.312-1.9c-1.916-.547-4.4-.848-5.358.816a1,1,0,1,1-1.734-1c.722-1.259,2.677-3.16,7.641-1.745a53.286,53.286,0,0,0,8.97,1.838,3.076,3.076,0,0,1,2.756,3.074A3.083,3.083,0,0,1,35.8,43.2Z"></path><path fill="#331e03" d="M33.612,49.6a27.091,27.091,0,0,1-13.727-3.531,1,1,0,0,1,1-1.732c7.349,4.241,16.7,4.346,27.036.3a1.115,1.115,0,0,0,.694-1.029,1.07,1.07,0,0,0-.115-.483,1.106,1.106,0,0,0-1.381-.528c-3.757,1.4-9.32-.462-9.555-.541a1,1,0,0,1,.642-1.9c.051.017,5.131,1.708,8.221.56a3.092,3.092,0,0,1,4.188,2.887,3.136,3.136,0,0,1-1.96,2.89A41.529,41.529,0,0,1,33.612,49.6Z"></path><path fill="#331e03" d="M20.385 47.66h-6a1 1 0 01-1-1v-12a1 1 0 011-1h6a1 1 0 011 1v12A1 1 0 0120.385 47.66zm-5-2h4v-10h-4zM33.805 27.4a6.442 6.442 0 01-3.724-1.23l-.069.068a2.517 2.517 0 01-3.464 0 2.463 2.463 0 01-.006-3.458l.762-.762a5.526 5.526 0 011.381-5.051c2.2-2.194 5.987-1.982 8.437.467s2.666 6.238.47 8.434A5.29 5.29 0 0133.805 27.4zm-3.79-3.579a1 1 0 01.687.274c1.682 1.591 4.086 1.749 5.476.359 1.416-1.416 1.205-3.93-.47-5.606s-4.186-1.881-5.608-.468a3.568 3.568 0 00-.73 3.644 1 1 0 01-.248 1l-1.16 1.16a.461.461 0 000 .636.442.442 0 00.623.013l.723-.723A1 1 0 0130.015 23.82z"></path><path fill="#331e03" d="M38.886,31.157a7.655,7.655,0,0,1-1.276-.105,8.543,8.543,0,0,1-5.521-3.7A1,1,0,0,1,33.8,26.313a6.6,6.6,0,0,0,4.165,2.771c2.188.354,4.632-.58,7.268-2.778a1,1,0,1,1,1.28,1.536C43.866,30.046,41.307,31.157,38.886,31.157Z"></path><path fill="#331e03" d="M42.475,30.3a1,1,0,0,1-.943-1.334,8.591,8.591,0,0,0-.508-6.663,1,1,0,0,1,1.8-.868,10.584,10.584,0,0,1,.592,8.2A1,1,0,0,1,42.475,30.3Z"></path><path fill="#331e03" d="M43.125 38.249a7.373 7.373 0 01-5.211-2.16l-3.952-3.952a5.679 5.679 0 01-1.4-2.319c-.622-2-.823-2.522-.881-2.655a1 1 0 111.834-.8c.156.36.478 1.321.956 2.859a3.682 3.682 0 00.907 1.5l3.952 3.952a5.171 5.171 0 007.139.285 5 5 0 00.11-7.179l-4.949-4.949a12.057 12.057 0 00-2.094-.63 10.071 10.071 0 01-1.444-.414 1 1 0 11.8-1.834c.161.07.694.2 1.122.306a7 7 0 013.032 1.158l4.949 4.949a7 7 0 01-.153 10.049A6.833 6.833 0 0143.125 38.249zM29.669 18.431a1.084 1.084 0 01-.159-.012 3.437 3.437 0 01-2.858-2.869 1 1 0 011.979-.292 1.484 1.484 0 001.208 1.188 1 1 0 01.809 1.155A1 1 0 0129.669 18.431z"></path><path fill="#331e03" d="M37.575,20.78a1,1,0,0,1-.707-1.707l.94-.94a.461.461,0,0,0,0-.636.445.445,0,0,0-.623-.013l-.713.713a1,1,0,1,1-1.414-1.414l.7-.7a2.518,2.518,0,0,1,3.464,0,2.463,2.463,0,0,1,.006,3.458l-.946.946A.993.993,0,0,1,37.575,20.78Z"></path></g></svg>