<svg xmlns="http://www.w3.org/2000/svg" viewBox="0 0 32 32" id="process"><path fill="#1e1fc0" d="M13 8.53v-3a3 3 0 0 1 6 0v3a3 3 0 0 1-6 0Zm-5.13 5.35a3 3 0 0 0 4.22-.47 3 3 0 0 0-.47-4.22L9.27 7.32A3 3 0 0 0 5.53 12Zm3.26 3.76a3 3 0 0 0-3.6-2.26l-2.92.67a3 3 0 0 0 1.33 5.85l2.93-.67a3 3 0 0 0 2.26-3.59Zm2.7 3.36a3 3 0 0 0-4 1.4l-1.31 2.74a3 3 0 0 0 5.41 2.6l1.3-2.7a3 3 0 0 0-1.4-4.04Zm8.34 1.4a3 3 0 0 0-5.4 2.6l1.3 2.7a3 3 0 0 0 5.41-2.6Zm5.22-6.38c-1.42-.24-3.86-1.3-5.19-.28a3 3 0 0 0 .93 5.46 34.72 34.72 0 0 0 3.59.74 3 3 0 0 0 .67-5.89Zm-7.48-2.64a3 3 0 0 0 4.21.47L26.47 12a3 3 0 0 0-3.74-4.69l-2.35 1.88a3 3 0 0 0-.47 4.22Z"></path></svg>