<svg xmlns="http://www.w3.org/2000/svg" viewBox="0 0 48 48" id="verification"><path fill="#82bcf4" d="m42.52 29 1.4 6.54-6.37 2-2 6.37L29 42.52 24 47l-5-4.48-6.54 1.4-2.05-6.37-6.37-2L5.48 29 1 24l4.48-5-1.4-6.5c7.29-2.35 6.32-1.88 6.5-2.46l1.92-6L19 5.48 24 1l5 4.48 6.54-1.4 2 6.37 6.37 2.05-1.39 6.5L47 24Z"></path><path fill="#6fabe6" d="M39 37c0 .11.21 0-1.45.55l-2 6.37-6.55-1.4L24 47l-5-4.48-6.54 1.4-2.05-6.37-6.37-2L5.48 29 1 24l4.48-5-1.4-6.5c7.29-2.35 6.32-1.88 6.5-2.46A27 27 0 0 1 39 37Z"></path><path fill="#edebf2" d="M39 24a15 15 0 1 1-27.42-8.42C19.91 3.38 39 9.28 39 24Z"></path><path fill="#dad7e5" d="M35 28a15 15 0 0 1-2.58 8.42 15 15 0 0 1-20.84-20.84A15 15 0 0 1 35 28Z"></path><path fill="#82bcf4" d="m32.5 20.68-9.38 9.38a3 3 0 0 1-4.24 0l-3.38-3.38a2.12 2.12 0 0 1 3-3l2.5 2.5c11.37-11.37 7.75-7.74 8.5-8.5a2.12 2.12 0 0 1 3 3Z"></path><path fill="#6fabe6" d="m31.5 21.68-8.38 8.38a3 3 0 0 1-4.24 0l-3.38-3.38a2.11 2.11 0 0 1-.41-2.41 2.11 2.11 0 0 1 2.41.41l2.5 2.5c11.82-11.82 7.8-7.79 8.66-8.65a2.12 2.12 0 0 1 2.84 3.15Z"></path><path d="M28.79 17 21 24.77 19.21 23a3.18 3.18 0 0 0-4.42 0 3.13 3.13 0 0 0 0 4.42c3.44 3.44 4.12 4.55 6.21 4.55s2.11-.46 12.21-10.55A3.13 3.13 0 0 0 28.79 17Zm3 3-9.38 9.38a2 2 0 0 1-2.82 0c-3.45-3.44-3.71-3.51-3.71-4.17a1.12 1.12 0 0 1 1.91-.79l2.5 2.5a1 1 0 0 0 1.42 0l8.5-8.5A1.12 1.12 0 0 1 31.79 20Z"></path><path d="M24 8a16 16 0 1 0 16 16A16 16 0 0 0 24 8Zm0 30a14 14 0 1 1 14-14 14 14 0 0 1-14 14Z"></path><path d="m47.74 23.33-4.14-4.58 1.3-6a1 1 0 0 0-.67-1.17l-5.88-1.93-1.89-5.88a1 1 0 0 0-1.17-.67l-6 1.3L24.67.26a1 1 0 0 0-1.34 0L18.75 4.4l-6-1.3a1 1 0 0 0-1.17.67L9.65 9.65l-5.88 1.89a1 1 0 0 0-.67 1.17l1.3 6-4.14 4.62a1 1 0 0 0 0 1.34l4.14 4.58-1.3 6a1 1 0 0 0 .67 1.17l5.88 1.89 1.89 5.88a1 1 0 0 0 1.17.67l6-1.3 4.58 4.14a1 1 0 0 0 1.34 0l4.58-4.14 6 1.3a1 1 0 0 0 1.17-.67l1.89-5.88 5.88-1.89a1 1 0 0 0 .67-1.17l-1.3-6 4.14-4.58a1 1 0 0 0 .08-1.34Zm-6 5c-.46.52-.33.42 1 6.54-5.75 1.85-5.93 1.74-6.15 2.42l-1.77 5.5-5.66-1.21c-.78-.16-1 .33-5.17 4.11-4.65-4.2-4.44-4.13-5-4.13-.16 0 .27-.08-5.87 1.23-1.85-5.75-1.73-5.93-2.42-6.15l-5.46-1.81 1.22-5.66c.15-.68.07-.55-4.11-5.17 4.22-4.68 4.26-4.5 4.11-5.17l-1.22-5.66 5.51-1.77c.76-.24.69-.78 2.42-6.15 6.16 1.32 6 1.44 6.54 1L24 2.35l4.29 3.88c.52.46.42.33 6.54-1 1.85 5.75 1.73 5.93 2.42 6.15l5.5 1.77-1.21 5.66c-.15.68-.08.53 4.11 5.17Z"></path></svg>